<?xml version="1.0" encoding="utf-8"?>
<svg width="600.49994px" height="600.49994px" viewBox="0 0 600.49994 600.49994" version="1.1" xmlns:xlink="http://www.w3.org/1999/xlink" xmlns="http://www.w3.org/2000/svg">
  <defs>
    <path d="M325.25 14.4335L535.274 135.691Q535.983 136.1 536.678 136.532Q537.373 136.965 538.053 137.419Q538.733 137.874 539.398 138.35Q540.063 138.827 540.712 139.325Q541.361 139.823 541.994 140.342Q542.626 140.861 543.241 141.4Q543.857 141.94 544.454 142.499Q545.051 143.059 545.63 143.637Q546.208 144.216 546.767 144.813Q547.327 145.41 547.866 146.025Q548.406 146.64 548.925 147.273Q549.444 147.905 549.942 148.554Q550.44 149.203 550.916 149.868Q551.393 150.533 551.848 151.214Q552.302 151.894 552.734 152.589Q553.166 153.284 553.575 153.992Q553.984 154.701 554.37 155.422Q554.756 156.144 555.118 156.878Q555.48 157.612 555.817 158.357Q556.155 159.102 556.468 159.858Q556.781 160.614 557.069 161.38Q557.358 162.145 557.621 162.92Q557.884 163.695 558.121 164.478Q558.359 165.261 558.57 166.051Q558.782 166.841 558.968 167.638Q559.154 168.435 559.313 169.237Q559.473 170.04 559.606 170.847Q559.739 171.654 559.846 172.466Q559.953 173.277 560.033 174.091Q560.113 174.905 560.167 175.722Q560.22 176.538 560.247 177.356Q560.274 178.174 560.274 178.992L560.274 421.508Q560.274 422.326 560.247 423.144Q560.221 423.961 560.167 424.778Q560.114 425.594 560.033 426.408Q559.953 427.223 559.846 428.034Q559.74 428.845 559.606 429.652Q559.473 430.459 559.313 431.262Q559.154 432.064 558.968 432.861Q558.782 433.658 558.57 434.448Q558.359 435.239 558.121 436.022Q557.884 436.804 557.621 437.579Q557.358 438.354 557.07 439.12Q556.781 439.885 556.468 440.641Q556.155 441.397 555.818 442.143Q555.48 442.888 555.118 443.622Q554.756 444.355 554.37 445.077Q553.985 445.799 553.576 446.507Q553.167 447.216 552.734 447.91Q552.302 448.605 551.848 449.286Q551.393 449.966 550.917 450.631Q550.44 451.296 549.942 451.945Q549.444 452.594 548.925 453.227Q548.406 453.859 547.867 454.474Q547.327 455.089 546.768 455.687Q546.208 456.284 545.63 456.862Q545.051 457.441 544.454 458Q543.857 458.559 543.242 459.099Q542.627 459.638 541.994 460.157Q541.362 460.676 540.713 461.174Q540.064 461.673 539.399 462.149Q538.734 462.626 538.053 463.08Q537.373 463.535 536.678 463.967Q535.983 464.399 535.275 464.808L325.25 586.066Q324.542 586.476 323.82 586.861Q323.099 587.247 322.365 587.609Q321.631 587.971 320.886 588.308Q320.14 588.646 319.384 588.959Q318.629 589.272 317.863 589.56Q317.097 589.849 316.322 590.112Q315.548 590.375 314.765 590.612Q313.982 590.85 313.191 591.061Q312.401 591.273 311.604 591.459Q310.807 591.645 310.005 591.804Q309.203 591.964 308.395 592.097Q307.588 592.23 306.777 592.337Q305.966 592.444 305.151 592.524Q304.337 592.604 303.521 592.658Q302.704 592.711 301.887 592.738Q301.069 592.765 300.251 592.765Q299.432 592.765 298.615 592.738Q297.797 592.711 296.981 592.658Q296.164 592.604 295.35 592.524Q294.536 592.444 293.725 592.337Q292.913 592.231 292.106 592.097Q291.299 591.964 290.496 591.804Q289.694 591.645 288.897 591.459Q288.1 591.273 287.31 591.061Q286.52 590.85 285.737 590.612Q284.954 590.375 284.179 590.112Q283.404 589.849 282.639 589.56Q281.873 589.272 281.117 588.959Q280.361 588.646 279.616 588.308Q278.871 587.971 278.137 587.609Q277.403 587.247 276.681 586.861Q275.96 586.476 275.251 586.067L65.2259 464.809Q64.5173 464.4 63.8225 463.968Q63.1277 463.536 62.4474 463.081Q61.7671 462.627 61.1021 462.15Q60.437 461.674 59.7879 461.176Q59.1388 460.678 58.5063 460.159Q57.8739 459.639 57.2587 459.1Q56.6436 458.561 56.0464 458.001Q55.4493 457.442 54.8707 456.863Q54.2922 456.285 53.7329 455.688Q53.1736 455.091 52.6341 454.475Q52.0947 453.86 51.5756 453.228Q51.0566 452.595 50.5585 451.946Q50.0604 451.297 49.5838 450.632Q49.1073 449.967 48.6527 449.287Q48.1981 448.606 47.7661 447.912Q47.334 447.217 46.9249 446.508Q46.5158 445.8 46.1302 445.078Q45.7445 444.357 45.3826 443.623Q45.0207 442.889 44.683 442.144Q44.3454 441.399 44.0323 440.643Q43.7192 439.887 43.431 439.121Q43.1427 438.355 42.8798 437.581Q42.6168 436.806 42.3792 436.023Q42.1417 435.24 41.93 434.45Q41.7182 433.659 41.5324 432.862Q41.3466 432.066 41.187 431.263Q41.0274 430.461 40.8941 429.654Q40.7608 428.846 40.654 428.035Q40.5472 427.224 40.467 426.41Q40.3868 425.595 40.3333 424.779Q40.2798 423.963 40.253 423.145Q40.2263 422.327 40.2263 421.509L40.2254 178.993Q40.2254 178.175 40.2522 177.357Q40.2789 176.539 40.3324 175.723Q40.3859 174.906 40.4661 174.092Q40.5463 173.278 40.6531 172.467Q40.7599 171.656 40.8932 170.848Q41.0265 170.041 41.1861 169.239Q41.3457 168.436 41.5315 167.639Q41.7173 166.843 41.929 166.052Q42.1408 165.262 42.3783 164.479Q42.6158 163.696 42.8788 162.921Q43.1418 162.147 43.43 161.381Q43.7182 160.615 44.0313 159.859Q44.3444 159.103 44.682 158.358Q45.0197 157.613 45.3816 156.879Q45.7435 156.145 46.1291 155.424Q46.5148 154.702 46.9239 153.993Q47.333 153.285 47.765 152.59Q48.1971 151.895 48.6517 151.215Q49.1062 150.535 49.5828 149.87Q50.0594 149.205 50.5574 148.555Q51.0555 147.906 51.5746 147.274Q52.0936 146.641 52.6331 146.026Q53.1725 145.411 53.7318 144.814Q54.2911 144.217 54.8697 143.638Q55.4482 143.06 56.0454 142.5Q56.6425 141.941 57.2577 141.402Q57.8728 140.862 58.5053 140.343Q59.1377 139.824 59.7868 139.326Q60.4359 138.828 61.101 138.351Q61.766 137.875 62.4463 137.42Q63.1266 136.966 63.8214 136.534Q64.5162 136.102 65.2248 135.692L275.25 14.4335Q275.959 14.0244 276.681 13.6388Q277.402 13.2531 278.136 12.8912Q278.87 12.5293 279.615 12.1917Q280.36 11.854 281.116 11.5409Q281.872 11.2278 282.638 10.9396Q283.404 10.6514 284.178 10.3884Q284.953 10.1254 285.736 9.88786Q286.519 9.65035 287.309 9.43859Q288.1 9.22683 288.896 9.04104Q289.693 8.85525 290.496 8.69563Q291.298 8.53601 292.105 8.40273Q292.913 8.26945 293.724 8.16265Q294.535 8.05586 295.349 7.97566Q296.163 7.89546 296.98 7.84195Q297.796 7.78844 298.614 7.76167Q299.432 7.7349 300.25 7.7349Q301.068 7.73489 301.886 7.76166Q302.704 7.78843 303.52 7.84194Q304.336 7.89545 305.151 7.97565Q305.965 8.05584 306.776 8.16264Q307.587 8.26943 308.395 8.40271Q309.202 8.53598 310.004 8.6956Q310.807 8.85522 311.604 9.04101Q312.4 9.2268 313.191 9.43856Q313.981 9.65032 314.764 9.88782Q315.547 10.1253 316.322 10.3883Q317.096 10.6513 317.862 10.9395Q318.628 11.2277 319.384 11.5408Q320.14 11.8539 320.885 12.1916Q321.63 12.5293 322.364 12.8911Q323.098 13.253 323.819 13.6387Q324.541 14.0244 325.25 14.4335Z" id="path_1" />
    <clipPath id="clip_1">
      <use xlink:href="#path_1" />
    </clipPath>
  </defs>
  <g id="Polígono">
    <use stroke="none" fill="#000000" fill-opacity="0" xlink:href="#path_1" fill-rule="evenodd" />
    <g clip-path="url(#clip_1)">
      <use xlink:href="#path_1" fill="none" stroke="#000000" stroke-opacity="0" stroke-width="60" />
    </g>
  </g>
  <g id="icons8-node-js-500" transform="translate(41.657333 9.3632965)">
    <path d="M170.688 668.136C162.888 668.136 155.156 666.098 148.32 662.157L77.1135 619.99C66.4732 614.038 71.6643 611.932 75.1702 610.723C89.3573 605.763 92.2246 604.635 107.363 596.033C108.953 595.122 111.032 595.448 112.663 596.413L167.372 628.878C169.343 629.951 172.156 629.951 173.977 628.878L387.285 505.747C389.255 504.619 390.546 502.336 390.546 499.985L390.546 253.846C390.546 251.386 389.269 249.198 387.244 247.975L174.031 124.939C172.06 123.771 169.438 123.771 167.467 124.939L-45.7184 247.962C-47.7839 249.13 -49.1021 251.427 -49.1021 253.778L-49.1021 499.931C-49.1021 502.282 -47.8247 504.524 -45.7863 505.638L12.6332 539.38C44.3501 555.238 63.7282 536.553 63.7282 517.76L63.7282 274.827C63.7282 271.362 66.446 268.685 69.9248 268.685L96.94 268.685C100.31 268.685 103.082 271.348 103.082 274.827L103.082 517.882C103.082 560.171 80.0215 584.468 39.9201 584.468C27.5812 584.468 17.865 584.468 -9.25883 571.124L-65.2187 538.877C-79.0524 530.859 -87.6 515.898 -87.6 499.944L-87.6 253.791C-87.6 237.77 -79.0524 222.822 -65.2323 214.913L148.307 91.7277C161.814 84.0906 179.752 84.0906 193.164 91.7277L406.432 214.967C420.184 222.917 428.786 237.824 428.786 253.846L428.786 499.999C428.786 515.966 420.184 530.859 406.418 538.877L193.151 662.049C186.315 666.003 178.57 668.028 170.674 668.028" id="Forma" fill="#4ADE80" stroke="none" />
    <path d="M235.443 497.16C143.016 497.16 123.638 454.728 123.638 419.147C123.638 415.769 126.369 413.064 129.761 413.064L157.053 413.064C160.067 413.064 162.611 415.257 163.082 418.231C167.2 446.035 179.473 460.057 235.362 460.057C279.879 460.057 298.814 450.005 298.814 426.387C298.814 412.795 293.418 402.701 224.259 395.932C166.406 390.226 130.662 377.482 130.662 331.215C130.662 288.595 166.621 263.214 226.843 263.214C294.481 263.214 328.004 286.698 332.229 337.136C332.391 338.886 331.758 340.568 330.587 341.847C329.43 343.058 327.788 343.798 326.093 343.798L298.653 343.798C295.8 343.798 293.31 341.793 292.731 339.034C286.124 309.791 270.15 300.438 226.736 300.438C178.141 300.438 172.488 317.354 172.488 330.044C172.488 345.426 179.15 349.921 244.715 358.601C309.647 367.214 340.479 379.38 340.479 425.014C340.479 471.012 302.084 497.402 235.147 497.402" id="Forma" fill="#4ADE80" stroke="none" />
  </g>
</svg>