<?xml version="1.0" encoding="utf-8"?>
<svg width="600.5px" height="600.5px" viewBox="0 0 600.5 600.5" version="1.1" xmlns:xlink="http://www.w3.org/1999/xlink" xmlns="http://www.w3.org/2000/svg">
  <defs>
    <path d="M325.25 14.4335L535.274 135.691Q535.983 136.1 536.678 136.532Q537.373 136.965 538.053 137.419Q538.733 137.874 539.398 138.35Q540.063 138.827 540.712 139.325Q541.362 139.823 541.994 140.342Q542.626 140.861 543.242 141.401Q543.857 141.94 544.454 142.499Q545.051 143.059 545.63 143.637Q546.208 144.216 546.767 144.813Q547.327 145.41 547.866 146.025Q548.406 146.64 548.925 147.273Q549.444 147.905 549.942 148.554Q550.44 149.203 550.917 149.868Q551.393 150.533 551.848 151.214Q552.302 151.894 552.734 152.589Q553.166 153.284 553.575 153.992Q553.984 154.701 554.37 155.422Q554.756 156.144 555.118 156.878Q555.48 157.612 555.817 158.357Q556.155 159.102 556.468 159.858Q556.781 160.614 557.069 161.38Q557.358 162.145 557.621 162.92Q557.884 163.695 558.121 164.478Q558.359 165.261 558.57 166.051Q558.782 166.841 558.968 167.638Q559.154 168.435 559.313 169.237Q559.473 170.04 559.606 170.847Q559.74 171.654 559.846 172.466Q559.953 173.277 560.033 174.091Q560.113 174.905 560.167 175.722Q560.221 176.538 560.247 177.356Q560.274 178.174 560.274 178.992L560.274 421.508Q560.274 422.326 560.247 423.144Q560.221 423.961 560.167 424.778Q560.114 425.594 560.034 426.408Q559.953 427.223 559.847 428.034Q559.74 428.845 559.606 429.652Q559.473 430.46 559.314 431.262Q559.154 432.064 558.968 432.861Q558.782 433.658 558.571 434.448Q558.359 435.239 558.121 436.022Q557.884 436.805 557.621 437.579Q557.358 438.354 557.07 439.12Q556.781 439.886 556.468 440.641Q556.155 441.397 555.818 442.143Q555.48 442.888 555.118 443.622Q554.756 444.355 554.371 445.077Q553.985 445.799 553.576 446.507Q553.167 447.216 552.735 447.911Q552.303 448.605 551.848 449.286Q551.393 449.966 550.917 450.631Q550.44 451.296 549.942 451.945Q549.444 452.594 548.925 453.227Q548.406 453.859 547.867 454.474Q547.327 455.089 546.768 455.687Q546.209 456.284 545.63 456.862Q545.051 457.441 544.454 458Q543.857 458.559 543.242 459.099Q542.627 459.638 541.994 460.157Q541.362 460.676 540.713 461.175Q540.064 461.673 539.399 462.149Q538.734 462.626 538.053 463.08Q537.373 463.535 536.678 463.967Q535.983 464.399 535.275 464.808L325.25 586.066Q324.542 586.476 323.82 586.861Q323.099 587.247 322.365 587.609Q321.631 587.971 320.886 588.308Q320.14 588.646 319.384 588.959Q318.629 589.272 317.863 589.56Q317.097 589.849 316.322 590.112Q315.548 590.375 314.765 590.612Q313.982 590.85 313.191 591.061Q312.401 591.273 311.604 591.459Q310.807 591.645 310.005 591.804Q309.203 591.964 308.395 592.097Q307.588 592.231 306.777 592.337Q305.966 592.444 305.152 592.524Q304.337 592.605 303.521 592.658Q302.704 592.712 301.887 592.738Q301.069 592.765 300.251 592.765Q299.433 592.765 298.615 592.738Q297.797 592.712 296.981 592.658Q296.164 592.605 295.35 592.524Q294.536 592.444 293.725 592.337Q292.913 592.231 292.106 592.097Q291.299 591.964 290.496 591.805Q289.694 591.645 288.897 591.459Q288.1 591.273 287.31 591.062Q286.52 590.85 285.737 590.612Q284.954 590.375 284.179 590.112Q283.404 589.849 282.639 589.56Q281.873 589.272 281.117 588.959Q280.361 588.646 279.616 588.308Q278.871 587.971 278.137 587.609Q277.403 587.247 276.681 586.861Q275.96 586.476 275.251 586.067L65.2259 464.809Q64.5173 464.4 63.8225 463.968Q63.1277 463.536 62.4474 463.082Q61.7671 462.627 61.1021 462.15Q60.437 461.674 59.7879 461.176Q59.1388 460.678 58.5063 460.159Q57.8739 459.64 57.2587 459.1Q56.6436 458.561 56.0464 458.001Q55.4493 457.442 54.8707 456.863Q54.2922 456.285 53.7329 455.688Q53.1736 455.091 52.6341 454.475Q52.0947 453.86 51.5756 453.228Q51.0566 452.595 50.5585 451.946Q50.0604 451.297 49.5838 450.632Q49.1073 449.967 48.6527 449.287Q48.1981 448.607 47.7661 447.912Q47.334 447.217 46.9249 446.508Q46.5158 445.8 46.1302 445.078Q45.7445 444.357 45.3826 443.623Q45.0207 442.889 44.683 442.144Q44.3454 441.399 44.0323 440.643Q43.7192 439.887 43.431 439.121Q43.1427 438.355 42.8798 437.581Q42.6168 436.806 42.3792 436.023Q42.1417 435.24 41.93 434.45Q41.7182 433.659 41.5324 432.862Q41.3466 432.066 41.187 431.263Q41.0274 430.461 40.8941 429.654Q40.7608 428.846 40.654 428.035Q40.5472 427.224 40.467 426.41Q40.3868 425.595 40.3333 424.779Q40.2798 423.963 40.253 423.145Q40.2263 422.327 40.2263 421.509L40.2254 178.993Q40.2254 178.175 40.2522 177.357Q40.2789 176.539 40.3324 175.723Q40.3859 174.906 40.4661 174.092Q40.5463 173.278 40.6531 172.467Q40.7599 171.656 40.8932 170.848Q41.0265 170.041 41.1861 169.239Q41.3457 168.436 41.5315 167.639Q41.7173 166.843 41.929 166.052Q42.1408 165.262 42.3783 164.479Q42.6158 163.696 42.8788 162.921Q43.1418 162.147 43.43 161.381Q43.7182 160.615 44.0313 159.859Q44.3444 159.103 44.6821 158.358Q45.0197 157.613 45.3816 156.879Q45.7435 156.145 46.1291 155.424Q46.5148 154.702 46.9239 153.993Q47.333 153.285 47.7651 152.59Q48.1971 151.895 48.6517 151.215Q49.1062 150.535 49.5828 149.87Q50.0594 149.205 50.5574 148.555Q51.0555 147.906 51.5746 147.274Q52.0936 146.641 52.6331 146.026Q53.1725 145.411 53.7318 144.814Q54.2911 144.217 54.8697 143.638Q55.4482 143.06 56.0454 142.5Q56.6425 141.941 57.2577 141.402Q57.8728 140.862 58.5053 140.343Q59.1377 139.824 59.7868 139.326Q60.4359 138.828 61.101 138.351Q61.7661 137.875 62.4464 137.42Q63.1266 136.966 63.8214 136.534Q64.5163 136.102 65.2248 135.692L275.25 14.4335Q275.959 14.0245 276.681 13.6388Q277.402 13.2531 278.136 12.8912Q278.87 12.5293 279.615 12.1917Q280.36 11.854 281.116 11.5409Q281.872 11.2278 282.638 10.9396Q283.404 10.6514 284.178 10.3884Q284.953 10.1254 285.736 9.88786Q286.519 9.65036 287.309 9.43859Q288.1 9.22683 288.896 9.04104Q289.693 8.85525 290.496 8.69563Q291.298 8.53601 292.105 8.40273Q292.913 8.26945 293.724 8.16266Q294.535 8.05586 295.349 7.97566Q296.164 7.89547 296.98 7.84196Q297.796 7.78844 298.614 7.76167Q299.432 7.7349 300.25 7.7349Q301.068 7.7349 301.886 7.76167Q302.704 7.78844 303.52 7.84195Q304.337 7.89546 305.151 7.97565Q305.965 8.05585 306.776 8.16264Q307.587 8.26943 308.395 8.40271Q309.202 8.53599 310.004 8.69561Q310.807 8.85523 311.604 9.04102Q312.4 9.2268 313.191 9.43856Q313.981 9.65032 314.764 9.88783Q315.547 10.1253 316.322 10.3883Q317.096 10.6513 317.862 10.9395Q318.628 11.2277 319.384 11.5408Q320.14 11.8539 320.885 12.1916Q321.63 12.5293 322.364 12.8912Q323.098 13.253 323.819 13.6387Q324.541 14.0244 325.25 14.4335L325.25 14.4335Z" id="path_1" />
    <path d="M75 75L525 75L525 525L75 525L75 75Z" id="path_2" />
    <clipPath id="clip_1">
      <use xlink:href="#path_1" />
    </clipPath>
    <clipPath id="mask_1">
      <use xlink:href="#path_2" />
    </clipPath>
  </defs>
  <g id="Polígono">
    <use stroke="none" fill="#4ADE80" fill-opacity="0" xlink:href="#path_1" fill-rule="evenodd" />
    <g clip-path="url(#clip_1)">
      <use xlink:href="#path_1" fill="none" stroke="#4ADE80" stroke-width="60" />
    </g>
  </g>
  <g id="icons8-react-native-500" transform="translate(75 75)">
    <path d="M75 75L525 75L525 525L75 525L75 75Z" id="Fundo" fill="#FFFFFF" fill-opacity="0" fill-rule="evenodd" stroke="none" />
    <g clip-path="url(#mask_1)">
      <path d="M385.992 110.859C378.975 110.623 371.63 111.847 364.266 114.234C349.537 119.009 334.103 128.315 318.264 141.199C312.056 146.249 305.793 152.02 299.508 158.145C293.362 152.176 287.227 146.541 281.156 141.604C265.33 128.73 249.938 119.438 235.242 114.674C220.547 109.91 205.925 109.762 193.916 116.695C181.907 123.629 174.726 136.356 171.504 151.465C168.282 166.573 168.62 184.566 171.855 204.709C172.979 211.706 174.6 219.046 176.426 226.523C169.564 228.603 162.9 230.79 156.721 233.203C138.072 240.487 122.641 249.201 111.404 259.57C100.168 269.94 92.9121 282.525 92.9121 296.344C92.9121 310.163 100.168 322.73 111.404 333.1C122.641 343.469 138.072 352.201 156.721 359.484C163.328 362.065 170.482 364.389 177.867 366.586C175.211 376.512 173.059 386.143 171.592 395.273C168.353 415.433 168.011 433.427 171.24 448.57C174.469 463.713 181.654 476.513 193.723 483.48C205.791 490.448 220.478 490.277 235.207 485.502C249.936 480.727 265.352 471.439 281.191 458.555C287.342 453.552 293.563 447.845 299.789 441.785C306.045 447.878 312.297 453.617 318.475 458.643C334.301 471.516 349.711 480.808 364.406 485.572C379.102 490.337 393.706 490.484 405.715 483.551C417.724 476.617 424.905 463.89 428.127 448.781C431.349 433.673 430.994 415.68 427.758 395.537C426.287 386.382 424.134 376.736 421.465 366.779C429.094 364.529 436.474 362.142 443.279 359.484C461.928 352.201 477.359 343.469 488.596 333.1C499.832 322.73 507.088 310.163 507.088 296.344C507.088 282.525 499.832 269.94 488.596 259.57C477.359 249.201 461.928 240.487 443.279 233.203C437.011 230.755 430.245 228.54 423.275 226.436C425.116 218.912 426.75 211.519 427.881 204.48C431.119 184.321 431.461 166.309 428.232 151.166C425.004 136.023 417.801 123.241 405.732 116.273C399.698 112.79 393.009 111.095 385.992 110.859L385.992 110.859ZM385.166 129.176C389.569 129.296 393.326 130.344 396.539 132.199C402.966 135.91 407.716 143.131 410.25 155.016C412.784 166.9 412.697 182.958 409.705 201.58C408.681 207.956 407.194 214.713 405.504 221.637C387.099 217.207 366.933 213.919 345.439 211.986C334.642 197.026 323.544 183.417 312.357 171.328C318.272 165.555 324.148 160.156 329.883 155.49C344.514 143.588 358.366 135.49 369.926 131.742C375.706 129.868 380.763 129.055 385.166 129.176L385.166 129.176ZM214.377 129.229C218.806 129.105 223.873 129.916 229.67 131.795C241.263 135.553 255.139 143.648 269.783 155.561C275.402 160.131 281.149 165.413 286.939 171.047C275.673 183.232 264.497 196.983 253.629 212.074C232.212 214.042 212.117 217.362 193.793 221.813C192.114 214.922 190.647 208.192 189.627 201.844C186.633 183.205 186.558 167.128 189.1 155.209C191.641 143.29 196.43 136.032 202.916 132.287C206.159 130.415 209.948 129.352 214.377 129.229L214.377 129.229ZM299.789 184.283C307.12 192.261 314.455 200.994 321.727 210.387C314.58 210.089 307.347 209.912 300 209.912C292.507 209.912 285.136 210.094 277.852 210.404C285.126 201.003 292.456 192.268 299.789 184.283L299.789 184.283ZM300 228.088C312.239 228.088 324.168 228.591 335.771 229.441C343.756 240.909 351.558 253.074 358.992 265.951C365.525 277.266 371.436 288.562 376.816 299.719C371.379 311.023 365.369 322.473 358.746 333.943C352.917 344.041 346.829 353.631 340.641 362.877C327.534 363.972 313.953 364.582 300 364.582C285.711 364.582 271.825 363.936 258.428 362.789C252.343 353.676 246.358 344.213 240.621 334.277C234.014 322.833 228.032 311.422 222.604 300.141C228.055 288.796 234.063 277.304 240.709 265.793C248.104 252.984 255.884 240.888 263.824 229.477C275.552 228.607 287.62 228.088 300 228.088L300 228.088ZM358.957 231.691C373.787 233.542 387.711 236.114 400.67 239.197C396.823 251.808 392.085 264.979 386.344 278.572C382.616 271.386 378.755 264.176 374.584 256.951C369.532 248.2 364.278 239.844 358.957 231.691L358.957 231.691ZM240.094 231.832C234.882 239.836 229.754 248.021 224.801 256.6C220.576 263.917 216.635 271.225 212.865 278.502C207.174 264.991 202.464 251.894 198.645 239.355C211.512 236.265 225.361 233.704 240.094 231.832L240.094 231.832ZM418.477 243.979C424.856 245.909 431.018 247.923 436.67 250.131C453.861 256.845 467.46 264.796 476.273 272.93C485.087 281.063 488.912 288.819 488.912 296.344C488.912 303.868 485.087 311.625 476.273 319.758C467.46 327.891 453.861 335.842 436.67 342.557C430.389 345.01 423.489 347.234 416.314 349.342C411.197 333.513 404.665 316.999 396.891 300.141C405.829 280.786 413.05 261.915 418.477 243.979L418.477 243.979ZM181.225 244.066C186.589 261.823 193.718 280.508 202.529 299.666C194.704 316.623 188.14 333.23 183 349.148C176.079 347.096 169.412 344.932 163.33 342.557C146.139 335.842 132.54 327.891 123.727 319.758C114.913 311.625 111.088 303.868 111.088 296.344C111.088 288.819 114.913 281.063 123.727 272.93C132.54 264.796 146.139 256.845 163.33 250.131C168.895 247.957 174.953 245.972 181.225 244.066L181.225 244.066ZM300 255C275.254 255 255 275.254 255 300C255 324.746 275.254 345 300 345C324.746 345 345 324.746 345 300C345 275.254 324.746 255 300 255L300 255ZM300 273C315.018 273 327 284.982 327 300C327 315.018 315.018 327 300 327C284.982 327 273 315.018 273 300C273 284.982 284.982 273 300 273L300 273ZM386.572 321.27C391.292 332.44 395.395 343.371 398.842 353.912C388.018 356.422 376.494 358.536 364.371 360.205C367.861 354.637 371.307 348.965 374.672 343.137C378.89 335.831 382.808 328.534 386.572 321.27L386.572 321.27ZM213.076 321.287C216.861 328.597 220.802 335.926 225.047 343.277C228.37 349.032 231.762 354.651 235.207 360.152C223.12 358.476 211.631 356.354 200.842 353.842C204.273 343.333 208.378 332.425 213.076 321.287L213.076 321.287ZM195.656 371.314C211.945 375.173 229.599 378.137 248.32 380.068C260.82 398.147 273.834 414.384 286.939 428.584C281.08 434.297 275.273 439.658 269.59 444.281C254.958 456.183 241.089 464.264 229.529 468.012C217.97 471.759 209.342 471.265 202.916 467.555C196.49 463.844 191.757 456.623 189.223 444.738C186.688 432.854 186.758 416.814 189.75 398.191C191.107 389.743 193.135 380.697 195.656 371.314L195.656 371.314ZM404.045 371.385C406.585 380.82 408.622 389.908 409.986 398.402C412.98 417.041 413.055 433.1 410.514 445.02C407.972 456.939 403.201 464.214 396.715 467.959C390.229 471.704 381.536 472.21 369.943 468.451C358.35 464.693 344.474 456.58 329.83 444.668C324.106 440.012 318.259 434.624 312.357 428.865C325.548 414.611 338.659 398.287 351.24 380.104C370.008 378.185 387.712 375.239 404.045 371.385L404.045 371.385ZM271.805 381.914C281.046 382.418 290.408 382.758 300 382.758C309.275 382.758 318.334 382.438 327.281 381.967C318.135 394.307 308.811 405.526 299.525 415.629C290.245 405.505 280.939 394.266 271.805 381.914L271.805 381.914Z" id="Forma" fill="#4ADE80" fill-rule="evenodd" stroke="none" />
    </g>
  </g>
</svg>