<?xml version="1.0" encoding="utf-8"?>
<svg width="600.49994px" height="600.49994px" viewBox="0 0 600.49994 600.49994" version="1.1" xmlns:xlink="http://www.w3.org/1999/xlink" xmlns="http://www.w3.org/2000/svg">
  <defs>
    <path d="M76.2495 -261.567L286.274 -140.309Q286.983 -139.9 287.678 -139.468Q288.373 -139.036 289.053 -138.581Q289.733 -138.126 290.398 -137.65Q291.063 -137.173 291.712 -136.675Q292.361 -136.177 292.994 -135.658Q293.626 -135.139 294.242 -134.6Q294.857 -134.06 295.454 -133.501Q296.051 -132.942 296.63 -132.363Q297.208 -131.784 297.767 -131.187Q298.327 -130.59 298.866 -129.975Q299.406 -129.36 299.925 -128.727Q300.444 -128.095 300.942 -127.446Q301.44 -126.797 301.916 -126.132Q302.393 -125.467 302.848 -124.786Q303.302 -124.106 303.734 -123.411Q304.166 -122.716 304.575 -122.008Q304.984 -121.299 305.37 -120.578Q305.756 -119.856 306.118 -119.122Q306.48 -118.389 306.817 -117.643Q307.155 -116.898 307.468 -116.142Q307.781 -115.386 308.069 -114.621Q308.358 -113.855 308.621 -113.08Q308.884 -112.305 309.121 -111.522Q309.359 -110.739 309.57 -109.949Q309.782 -109.159 309.968 -108.362Q310.154 -107.565 310.313 -106.763Q310.473 -105.96 310.606 -105.153Q310.739 -104.346 310.846 -103.535Q310.953 -102.723 311.033 -101.909Q311.113 -101.095 311.167 -100.278Q311.22 -99.462 311.247 -98.6443Q311.274 -97.8266 311.274 -97.0084L311.274 145.508Q311.274 146.326 311.247 147.143Q311.221 147.961 311.167 148.778Q311.114 149.594 311.034 150.408Q310.953 151.223 310.846 152.034Q310.74 152.845 310.606 153.652Q310.473 154.459 310.314 155.262Q310.154 156.064 309.968 156.861Q309.782 157.658 309.571 158.448Q309.359 159.239 309.121 160.021Q308.884 160.804 308.621 161.579Q308.358 162.354 308.07 163.12Q307.781 163.885 307.468 164.641Q307.155 165.397 306.818 166.142Q306.48 166.888 306.118 167.622Q305.756 168.355 305.37 169.077Q304.985 169.798 304.576 170.507Q304.167 171.216 303.735 171.91Q303.302 172.605 302.848 173.285Q302.393 173.966 301.917 174.631Q301.44 175.296 300.942 175.945Q300.444 176.594 299.925 177.227Q299.406 177.859 298.867 178.474Q298.327 179.089 297.768 179.686Q297.208 180.284 296.63 180.862Q296.051 181.441 295.454 182Q294.857 182.559 294.242 183.099Q293.627 183.638 292.994 184.157Q292.362 184.676 291.713 185.174Q291.064 185.673 290.399 186.149Q289.734 186.626 289.053 187.08Q288.373 187.535 287.678 187.967Q286.983 188.399 286.275 188.808L76.2502 310.066Q75.5416 310.475 74.82 310.861Q74.0985 311.247 73.3647 311.609Q72.6309 311.971 71.8856 312.308Q71.1404 312.646 70.3845 312.959Q69.6286 313.272 68.8628 313.56Q68.0971 313.849 67.3223 314.112Q66.5476 314.374 65.7646 314.612Q64.9817 314.85 64.1914 315.061Q63.4011 315.273 62.6043 315.459Q61.8075 315.645 61.005 315.804Q60.2026 315.964 59.3953 316.097Q58.5881 316.23 57.7769 316.337Q56.9657 316.444 56.1515 316.524Q55.3372 316.604 54.5208 316.658Q53.7044 316.711 52.8866 316.738Q52.0689 316.765 51.2507 316.765Q50.4325 316.765 49.6148 316.738Q48.797 316.711 47.9806 316.658Q47.1642 316.604 46.3499 316.524Q45.5357 316.444 44.7245 316.337Q43.9133 316.23 43.1061 316.097Q42.2988 315.964 41.4964 315.804Q40.6939 315.645 39.8971 315.459Q39.1003 315.273 38.31 315.061Q37.5197 314.85 36.7368 314.612Q35.9538 314.375 35.1791 314.112Q34.4043 313.849 33.6386 313.56Q32.8728 313.272 32.1169 312.959Q31.361 312.646 30.6158 312.308Q29.8705 311.971 29.1367 311.609Q28.4029 311.247 27.6813 310.861Q26.9598 310.476 26.2512 310.066L-183.774 188.809Q-184.483 188.4 -185.177 187.968Q-185.872 187.536 -186.553 187.081Q-187.233 186.627 -187.898 186.15Q-188.563 185.674 -189.212 185.176Q-189.861 184.678 -190.494 184.158Q-191.126 183.639 -191.741 183.1Q-192.356 182.561 -192.954 182.001Q-193.551 181.442 -194.129 180.863Q-194.708 180.285 -195.267 179.688Q-195.826 179.091 -196.366 178.475Q-196.905 177.86 -197.424 177.228Q-197.943 176.595 -198.442 175.946Q-198.94 175.297 -199.416 174.632Q-199.893 173.967 -200.347 173.287Q-200.802 172.606 -201.234 171.912Q-201.666 171.217 -202.075 170.508Q-202.484 169.8 -202.87 169.078Q-203.256 168.357 -203.617 167.623Q-203.979 166.889 -204.317 166.144Q-204.655 165.398 -204.968 164.643Q-205.281 163.887 -205.569 163.121Q-205.857 162.355 -206.12 161.58Q-206.383 160.806 -206.621 160.023Q-206.858 159.24 -207.07 158.449Q-207.282 157.659 -207.468 156.862Q-207.653 156.066 -207.813 155.263Q-207.973 154.461 -208.106 153.653Q-208.239 152.846 -208.346 152.035Q-208.453 151.224 -208.533 150.41Q-208.613 149.595 -208.667 148.779Q-208.72 147.962 -208.747 147.145Q-208.774 146.327 -208.774 145.509L-208.775 -97.0071Q-208.775 -97.8252 -208.748 -98.643Q-208.721 -99.4607 -208.668 -100.277Q-208.614 -101.094 -208.534 -101.908Q-208.454 -102.722 -208.347 -103.533Q-208.24 -104.344 -208.107 -105.152Q-207.974 -105.959 -207.814 -106.761Q-207.654 -107.564 -207.469 -108.361Q-207.283 -109.157 -207.071 -109.948Q-206.859 -110.738 -206.622 -111.521Q-206.384 -112.304 -206.121 -113.079Q-205.858 -113.854 -205.57 -114.619Q-205.282 -115.385 -204.969 -116.141Q-204.656 -116.897 -204.318 -117.642Q-203.98 -118.387 -203.618 -119.121Q-203.257 -119.855 -202.871 -120.576Q-202.485 -121.298 -202.076 -122.007Q-201.667 -122.715 -201.235 -123.41Q-200.803 -124.105 -200.348 -124.785Q-199.894 -125.465 -199.417 -126.13Q-198.941 -126.795 -198.443 -127.445Q-197.944 -128.094 -197.425 -128.726Q-196.906 -129.359 -196.367 -129.974Q-195.827 -130.589 -195.268 -131.186Q-194.709 -131.783 -194.13 -132.362Q-193.552 -132.94 -192.955 -133.5Q-192.357 -134.059 -191.742 -134.598Q-191.127 -135.138 -190.495 -135.657Q-189.862 -136.176 -189.213 -136.674Q-188.564 -137.172 -187.899 -137.649Q-187.234 -138.125 -186.554 -138.58Q-185.873 -139.034 -185.179 -139.466Q-184.484 -139.898 -183.775 -140.308L26.2504 -261.567Q26.959 -261.976 27.6806 -262.361Q28.4021 -262.747 29.136 -263.109Q29.8698 -263.471 30.615 -263.808Q31.3603 -264.146 32.1162 -264.459Q32.8721 -264.772 33.6378 -265.06Q34.4035 -265.349 35.1783 -265.612Q35.9531 -265.875 36.736 -266.112Q37.519 -266.35 38.3093 -266.561Q39.0996 -266.773 39.8964 -266.959Q40.6932 -267.145 41.4956 -267.304Q42.2981 -267.464 43.1053 -267.597Q43.9126 -267.731 44.7238 -267.837Q45.535 -267.944 46.3492 -268.024Q47.1634 -268.105 47.9799 -268.158Q48.7963 -268.212 49.614 -268.238Q50.4318 -268.265 51.25 -268.265Q52.0681 -268.265 52.8859 -268.238Q53.7036 -268.212 54.5201 -268.158Q55.3365 -268.105 56.1507 -268.024Q56.965 -267.944 57.7761 -267.837Q58.5873 -267.731 59.3946 -267.597Q60.2018 -267.464 61.0043 -267.304Q61.8068 -267.145 62.6036 -266.959Q63.4004 -266.773 64.1907 -266.562Q64.981 -266.35 65.7639 -266.112Q66.5469 -265.875 67.3216 -265.612Q68.0964 -265.349 68.8621 -265.061Q69.6279 -264.772 70.3838 -264.459Q71.1397 -264.146 71.8849 -263.808Q72.6302 -263.471 73.364 -263.109Q74.0978 -262.747 74.8194 -262.361Q75.5409 -261.976 76.2495 -261.567Z" id="path_1" />
    <clipPath id="clip_1">
      <use xlink:href="#path_1" />
    </clipPath>
  </defs>
  <g id="icons8-typescript" transform="matrix(0.9999999 0 0 0.9999999 100.08334 160.2334)">
    <path d="M0 0L0 51.038L74.0687 51.038L74.0687 281.461L133.324 281.461L133.324 51.038L207.392 51.038L207.392 0L0 0L0 0ZM321.331 0.14466C275.192 -0.0389686 222.467 13.943 222.467 78.8716C222.467 163.754 336.839 163.775 336.839 202.069C336.839 205.698 338.378 232.072 298.011 232.072C257.643 232.072 224 206.698 224 206.698L224 268.297C224 268.297 400 325.222 400 196.861C399.985 113.533 284.557 117.701 284.557 76.2966C284.557 60.2533 295.954 45.2514 327.523 45.2514C359.091 45.2514 387.038 63.8843 387.038 63.8843L389.121 8.99819C389.121 8.99819 357.217 0.287489 321.331 0.14466L321.331 0.14466Z" id="Forma" fill="#4ADE80" fill-rule="evenodd" stroke="none" />
  </g>
  <g id="Polígono">
    <use stroke="none" fill="#4ADE80" fill-opacity="0" xlink:href="#path_1" fill-rule="evenodd" />
    <g clip-path="url(#clip_1)">
      <use xlink:href="#path_1" fill="none" stroke="#4ADE80" stroke-width="60" />
    </g>
  </g>
</svg>